<svg width="24" height="24" viewBox="0 0 24 24" fill="none" xmlns="http://www.w3.org/2000/svg">
<path fill-rule="evenodd" clip-rule="evenodd" d="M12.0001 21.9999C6.48011 21.9999 2.00011 17.5099 2.00011 11.9999C2.00011 6.47991 6.48011 1.99991 12.0001 1.99991C17.5101 1.99991 22.0001 6.47991 22.0001 11.9999C22.0001 17.5099 17.5101 21.9999 12.0001 21.9999ZM15 10.0199C14.7 9.72989 14.23 9.72989 13.94 10.0299L11 12.9799L10.06 12.0299C9.77001 11.7299 9.29001 11.7299 9.00001 12.0199C8.70001 12.3199 8.70001 12.7899 9.00001 13.0799L10.47 14.5699C10.61 14.7099 10.8 14.7899 11 14.7899C11.2 14.7899 11.39 14.7099 11.53 14.5699L15 11.0799C15.15 10.9399 15.22 10.7499 15.22 10.5599C15.22 10.3599 15.15 10.1699 15 10.0199Z" fill="#0F0E17"></path>
</svg>
