<svg width="32" height="32" viewBox="0 0 32 32" fill="none" xmlns="http://www.w3.org/2000/svg">
<g id="Iconly/Bold/Graph">
<g id="Graph">
<path id="Graph_2" fill-rule="evenodd" clip-rule="evenodd" d="M16.4352 2.94622C16.6481 2.7551 16.9298 2.65492 17.2181 2.66777C23.3125 2.85021 28.4058 7.27441 29.3289 13.1875C29.3348 13.2228 29.3348 13.2588 29.3289 13.2941C29.3488 13.5739 29.2543 13.8499 29.0662 14.0611C28.8781 14.2723 28.612 14.4013 28.3267 14.4196L18.0874 15.0948C17.7488 15.1248 17.413 15.0134 17.1625 14.7879C16.9119 14.5624 16.7699 14.2437 16.7713 13.9102L16.083 3.85243V3.68658C16.0956 3.40371 16.2223 3.13734 16.4352 2.94622ZM15.7329 17.7247L24.6077 17.1561L24.6681 17.1798C25.0492 17.186 25.4122 17.3406 25.6771 17.6094C25.9421 17.8782 26.0873 18.2393 26.0809 18.6132C25.7311 23.7093 21.9949 27.9673 16.9104 29.0643C11.8258 30.1613 6.61356 27.8339 4.11704 23.3518C3.38295 22.0609 2.91907 20.6392 2.7526 19.17C2.68804 18.7347 2.65977 18.2949 2.66808 17.855C2.68491 12.4361 6.54303 7.75875 11.9414 6.61267C12.5949 6.49035 13.2502 6.81664 13.5353 7.40639C13.6063 7.5134 13.6631 7.62885 13.7043 7.74994C13.8055 9.31204 13.9105 10.8594 14.015 12.4001C14.0976 13.617 14.1798 14.8298 14.2598 16.0425C14.2556 16.3282 14.3005 16.6126 14.3926 16.8836C14.6093 17.417 15.1485 17.7554 15.7329 17.7247Z" fill="#FF8906"></path>
</g>
</g>
</svg>
