<svg width="220" height="30" viewBox="0 0 220 30" fill="none" xmlns="http://www.w3.org/2000/svg">
<path d="M41.2693 3H57.6282L43.5 27H27.1411L41.2693 3Z" fill="#FF8906"></path>
<path d="M26.3974 3H38.2949L24.1667 27H12.2692L26.3974 3Z" fill="#F25F4C"></path>
<path d="M14.5 3H23.423L9.29484 27H0.371765L14.5 3Z" fill="#E53170"></path>
<path d="M76.04 8.1C77.52 8.1 78.8133 8.38667 79.92 8.96C81.04 9.52 81.9 10.3333 82.5 11.4C83.1133 12.4533 83.42 13.6867 83.42 15.1C83.42 16.5133 83.1133 17.74 82.5 18.78C81.9 19.82 81.04 20.62 79.92 21.18C78.8133 21.7267 77.52 22 76.04 22H71.5V8.1H76.04ZM76.04 20.14C77.6667 20.14 78.9133 19.7 79.78 18.82C80.6467 17.94 81.08 16.7 81.08 15.1C81.08 13.4867 80.6467 12.2267 79.78 11.32C78.9133 10.4133 77.6667 9.96 76.04 9.96H73.78V20.14H76.04ZM84.9197 16.44C84.9197 15.3333 85.1464 14.3533 85.5997 13.5C86.0664 12.6467 86.693 11.9867 87.4797 11.52C88.2797 11.04 89.1597 10.8 90.1197 10.8C90.9864 10.8 91.7397 10.9733 92.3797 11.32C93.033 11.6533 93.553 12.0733 93.9397 12.58V10.98H96.2397V22H93.9397V20.36C93.553 20.88 93.0264 21.3133 92.3597 21.66C91.693 22.0067 90.933 22.18 90.0797 22.18C89.133 22.18 88.2664 21.94 87.4797 21.46C86.693 20.9667 86.0664 20.2867 85.5997 19.42C85.1464 18.54 84.9197 17.5467 84.9197 16.44ZM93.9397 16.48C93.9397 15.72 93.7797 15.06 93.4597 14.5C93.153 13.94 92.7464 13.5133 92.2397 13.22C91.733 12.9267 91.1864 12.78 90.5997 12.78C90.013 12.78 89.4664 12.9267 88.9597 13.22C88.453 13.5 88.0397 13.92 87.7197 14.48C87.413 15.0267 87.2597 15.68 87.2597 16.44C87.2597 17.2 87.413 17.8667 87.7197 18.44C88.0397 19.0133 88.453 19.4533 88.9597 19.76C89.4797 20.0533 90.0264 20.2 90.5997 20.2C91.1864 20.2 91.733 20.0533 92.2397 19.76C92.7464 19.4667 93.153 19.04 93.4597 18.48C93.7797 17.9067 93.9397 17.24 93.9397 16.48ZM112.574 10.8C113.441 10.8 114.214 10.98 114.894 11.34C115.588 11.7 116.128 12.2333 116.514 12.94C116.914 13.6467 117.114 14.5 117.114 15.5V22H114.854V15.84C114.854 14.8533 114.608 14.1 114.114 13.58C113.621 13.0467 112.948 12.78 112.094 12.78C111.241 12.78 110.561 13.0467 110.054 13.58C109.561 14.1 109.314 14.8533 109.314 15.84V22H107.054V15.84C107.054 14.8533 106.808 14.1 106.314 13.58C105.821 13.0467 105.148 12.78 104.294 12.78C103.441 12.78 102.761 13.0467 102.254 13.58C101.761 14.1 101.514 14.8533 101.514 15.84V22H99.2344V10.98H101.514V12.24C101.888 11.7867 102.361 11.4333 102.934 11.18C103.508 10.9267 104.121 10.8 104.774 10.8C105.654 10.8 106.441 10.9867 107.134 11.36C107.828 11.7333 108.361 12.2733 108.734 12.98C109.068 12.3133 109.588 11.7867 110.294 11.4C111.001 11 111.761 10.8 112.574 10.8ZM124.796 22.18C123.756 22.18 122.816 21.9467 121.976 21.48C121.136 21 120.476 20.3333 119.996 19.48C119.516 18.6133 119.276 17.6133 119.276 16.48C119.276 15.36 119.522 14.3667 120.016 13.5C120.509 12.6333 121.182 11.9667 122.036 11.5C122.889 11.0333 123.842 10.8 124.896 10.8C125.949 10.8 126.902 11.0333 127.756 11.5C128.609 11.9667 129.282 12.6333 129.776 13.5C130.269 14.3667 130.516 15.36 130.516 16.48C130.516 17.6 130.262 18.5933 129.756 19.46C129.249 20.3267 128.556 21 127.676 21.48C126.809 21.9467 125.849 22.18 124.796 22.18ZM124.796 20.2C125.382 20.2 125.929 20.06 126.436 19.78C126.956 19.5 127.376 19.08 127.696 18.52C128.016 17.96 128.176 17.28 128.176 16.48C128.176 15.68 128.022 15.0067 127.716 14.46C127.409 13.9 127.002 13.48 126.496 13.2C125.989 12.92 125.442 12.78 124.856 12.78C124.269 12.78 123.722 12.92 123.216 13.2C122.722 13.48 122.329 13.9 122.036 14.46C121.742 15.0067 121.596 15.68 121.596 16.48C121.596 17.6667 121.896 18.5867 122.496 19.24C123.109 19.88 123.876 20.2 124.796 20.2ZM135.43 12.84V18.94C135.43 19.3533 135.523 19.6533 135.71 19.84C135.91 20.0133 136.243 20.1 136.71 20.1H138.11V22H136.31C135.283 22 134.496 21.76 133.95 21.28C133.403 20.8 133.13 20.02 133.13 18.94V12.84H131.83V10.98H133.13V8.24H135.43V10.98H138.11V12.84H135.43ZM150.131 10.98L143.371 27.18H141.011L143.251 21.82L138.911 10.98H141.451L144.551 19.38L147.771 10.98H150.131ZM161.627 22.14C160.694 22.14 159.854 21.98 159.107 21.66C158.36 21.3267 157.774 20.86 157.347 20.26C156.92 19.66 156.707 18.96 156.707 18.16H159.147C159.2 18.76 159.434 19.2533 159.847 19.64C160.274 20.0267 160.867 20.22 161.627 20.22C162.414 20.22 163.027 20.0333 163.467 19.66C163.907 19.2733 164.127 18.78 164.127 18.18C164.127 17.7133 163.987 17.3333 163.707 17.04C163.44 16.7467 163.1 16.52 162.687 16.36C162.287 16.2 161.727 16.0267 161.007 15.84C160.1 15.6 159.36 15.36 158.787 15.12C158.227 14.8667 157.747 14.48 157.347 13.96C156.947 13.44 156.747 12.7467 156.747 11.88C156.747 11.08 156.947 10.38 157.347 9.78C157.747 9.18 158.307 8.72 159.027 8.4C159.747 8.08 160.58 7.92 161.527 7.92C162.874 7.92 163.974 8.26 164.827 8.94C165.694 9.60667 166.174 10.5267 166.267 11.7H163.747C163.707 11.1933 163.467 10.76 163.027 10.4C162.587 10.04 162.007 9.86 161.287 9.86C160.634 9.86 160.1 10.0267 159.687 10.36C159.274 10.6933 159.067 11.1733 159.067 11.8C159.067 12.2267 159.194 12.58 159.447 12.86C159.714 13.1267 160.047 13.34 160.447 13.5C160.847 13.66 161.394 13.8333 162.087 14.02C163.007 14.2733 163.754 14.5267 164.327 14.78C164.914 15.0333 165.407 15.4267 165.807 15.96C166.22 16.48 166.427 17.18 166.427 18.06C166.427 18.7667 166.234 19.4333 165.847 20.06C165.474 20.6867 164.92 21.1933 164.187 21.58C163.467 21.9533 162.614 22.14 161.627 22.14ZM171.397 12.6C171.784 12.0933 172.311 11.6667 172.977 11.32C173.644 10.9733 174.397 10.8 175.237 10.8C176.197 10.8 177.071 11.04 177.857 11.52C178.657 11.9867 179.284 12.6467 179.737 13.5C180.191 14.3533 180.417 15.3333 180.417 16.44C180.417 17.5467 180.191 18.54 179.737 19.42C179.284 20.2867 178.657 20.9667 177.857 21.46C177.071 21.94 176.197 22.18 175.237 22.18C174.397 22.18 173.651 22.0133 172.997 21.68C172.344 21.3333 171.811 20.9067 171.397 20.4V27.24H169.117V10.98H171.397V12.6ZM178.097 16.44C178.097 15.68 177.937 15.0267 177.617 14.48C177.311 13.92 176.897 13.5 176.377 13.22C175.871 12.9267 175.324 12.78 174.737 12.78C174.164 12.78 173.617 12.9267 173.097 13.22C172.591 13.5133 172.177 13.94 171.857 14.5C171.551 15.06 171.397 15.72 171.397 16.48C171.397 17.24 171.551 17.9067 171.857 18.48C172.177 19.04 172.591 19.4667 173.097 19.76C173.617 20.0533 174.164 20.2 174.737 20.2C175.324 20.2 175.871 20.0533 176.377 19.76C176.897 19.4533 177.311 19.0133 177.617 18.44C177.937 17.8667 178.097 17.2 178.097 16.44ZM192.772 16.22C192.772 16.6333 192.745 17.0067 192.692 17.34H184.272C184.339 18.22 184.665 18.9267 185.252 19.46C185.839 19.9933 186.559 20.26 187.412 20.26C188.639 20.26 189.505 19.7467 190.012 18.72H192.472C192.139 19.7333 191.532 20.5667 190.652 21.22C189.785 21.86 188.705 22.18 187.412 22.18C186.359 22.18 185.412 21.9467 184.572 21.48C183.745 21 183.092 20.3333 182.612 19.48C182.145 18.6133 181.912 17.6133 181.912 16.48C181.912 15.3467 182.139 14.3533 182.592 13.5C183.059 12.6333 183.705 11.9667 184.532 11.5C185.372 11.0333 186.332 10.8 187.412 10.8C188.452 10.8 189.379 11.0267 190.192 11.48C191.005 11.9333 191.639 12.5733 192.092 13.4C192.545 14.2133 192.772 15.1533 192.772 16.22ZM190.392 15.5C190.379 14.66 190.079 13.9867 189.492 13.48C188.905 12.9733 188.179 12.72 187.312 12.72C186.525 12.72 185.852 12.9733 185.292 13.48C184.732 13.9733 184.399 14.6467 184.292 15.5H190.392ZM205.116 16.22C205.116 16.6333 205.089 17.0067 205.036 17.34H196.616C196.682 18.22 197.009 18.9267 197.596 19.46C198.182 19.9933 198.902 20.26 199.756 20.26C200.982 20.26 201.849 19.7467 202.356 18.72H204.816C204.482 19.7333 203.876 20.5667 202.996 21.22C202.129 21.86 201.049 22.18 199.756 22.18C198.702 22.18 197.756 21.9467 196.916 21.48C196.089 21 195.436 20.3333 194.956 19.48C194.489 18.6133 194.256 17.6133 194.256 16.48C194.256 15.3467 194.482 14.3533 194.936 13.5C195.402 12.6333 196.049 11.9667 196.876 11.5C197.716 11.0333 198.676 10.8 199.756 10.8C200.796 10.8 201.722 11.0267 202.536 11.48C203.349 11.9333 203.982 12.5733 204.436 13.4C204.889 14.2133 205.116 15.1533 205.116 16.22ZM202.736 15.5C202.722 14.66 202.422 13.9867 201.836 13.48C201.249 12.9733 200.522 12.72 199.656 12.72C198.869 12.72 198.196 12.9733 197.636 13.48C197.076 13.9733 196.742 14.6467 196.636 15.5H202.736ZM206.599 16.44C206.599 15.3333 206.826 14.3533 207.279 13.5C207.746 12.6467 208.373 11.9867 209.159 11.52C209.959 11.04 210.846 10.8 211.819 10.8C212.539 10.8 213.246 10.96 213.939 11.28C214.646 11.5867 215.206 12 215.619 12.52V7.2H217.919V22H215.619V20.34C215.246 20.8733 214.726 21.3133 214.059 21.66C213.406 22.0067 212.653 22.18 211.799 22.18C210.839 22.18 209.959 21.94 209.159 21.46C208.373 20.9667 207.746 20.2867 207.279 19.42C206.826 18.54 206.599 17.5467 206.599 16.44ZM215.619 16.48C215.619 15.72 215.459 15.06 215.139 14.5C214.833 13.94 214.426 13.5133 213.919 13.22C213.413 12.9267 212.866 12.78 212.279 12.78C211.693 12.78 211.146 12.9267 210.639 13.22C210.133 13.5 209.719 13.92 209.399 14.48C209.093 15.0267 208.939 15.68 208.939 16.44C208.939 17.2 209.093 17.8667 209.399 18.44C209.719 19.0133 210.133 19.4533 210.639 19.76C211.159 20.0533 211.706 20.2 212.279 20.2C212.866 20.2 213.413 20.0533 213.919 19.76C214.426 19.4667 214.833 19.04 215.139 18.48C215.459 17.9067 215.619 17.24 215.619 16.48Z" fill="#FFFFFE"></path>
</svg>
