<svg width="105" height="40" viewBox="0 0 105 40" fill="none" xmlns="http://www.w3.org/2000/svg">
<g clip-path="url('#clip0_29236_174')">
<path d="M72.3569 29.32C72.3569 29.639 72.6349 29.92 72.9499 29.92H74.8079V13.602L72.3569 14.841V29.32V29.32Z" fill="#919191"></path>
<path d="M87.2951 18.359C85.3181 18.359 83.2631 19.401 82.2361 20.92V29.32C82.2361 29.639 82.5141 29.92 82.8291 29.92H84.6871V21.92C85.2781 21.161 86.2281 20.681 87.2951 20.681C88.9941 20.681 90.2181 22.04 90.2181 23.84V29.92H92.6291V23.76C92.6301 20.681 90.3371 18.359 87.2951 18.359Z" fill="#919191"></path>
<path d="M47.2239 26.159V20.88H50.3849V18.68H47.2239V15.282L44.7729 16.521V26.682C44.7729 28.761 45.998 29.922 48.172 29.922H51.333V27.802H48.805C47.618 27.801 47.2239 27.359 47.2239 26.159Z" fill="#919191"></path>
<path d="M58.2099 18.481C56.1159 18.481 53.9029 19.601 52.7959 21.241V33.559C52.7959 33.88 53.0719 34.159 53.3889 34.159H55.2449V22.241C55.8379 21.36 56.9449 20.8 58.1699 20.8C60.0659 20.8 61.4499 22.241 61.4499 24.28C61.4499 26.281 60.0659 27.801 58.1699 27.801H56.4309V29.921H58.2099C61.4899 29.921 63.8999 27.561 63.8999 24.281C63.8989 20.96 61.4499 18.481 58.2099 18.481Z" fill="#919191"></path>
<path d="M79.7479 29.92V18.68H77.2969V29.32C77.2969 29.639 77.5749 29.92 77.8899 29.92H79.7479Z" fill="#919191"></path>
<path d="M105 29.92L99.8219 24.001L104.446 18.68H101.559L97.4119 23.64V13.602L94.9609 14.841V29.281C94.9609 29.64 95.2369 29.921 95.5539 29.921H97.4119V24.321L101.995 29.921H105V29.92Z" fill="#919191"></path>
<path d="M66.864 25.521H70.184V23.04H65.678L66.864 25.521Z" fill="#919191"></path>
<path d="M78.5221 13.361C77.6141 13.361 76.8621 14.082 76.8621 15.001C76.8621 15.441 77.0191 15.8 77.2961 16.081H79.7471C80.0231 15.8 80.1811 15.441 80.1811 15.001C80.1821 14.081 79.4311 13.361 78.5221 13.361Z" fill="#919191"></path>
<path d="M25.054 0C16.795 0 10.197 6.64 10.197 14.839V18H18.494V14.839C18.494 11.28 21.379 8.4 25.054 8.4C28.689 8.4 31.219 10.959 31.219 14.759C31.219 18.52 28.492 21.28 24.855 21.28H21.734V29.678H24.855C32.958 29.678 39.518 23 39.518 14.758C39.518 6.2 33.393 0 25.054 0Z" fill="#919191"></path>
<path d="M0 27.84C0 28.88 0.869 29.92 2.054 29.92H9.958V37.921C9.958 38.961 10.827 40.001 12.012 40.001H18.77V21H0V27.84Z" fill="#919191"></path>
</g>
<defs>
<clipPath id="clip0_29236_174">
<rect width="105" height="40" fill="white"></rect>
</clipPath>
</defs>
</svg>
