<svg width="219" height="24" viewBox="0 0 219 24" fill="none" xmlns="http://www.w3.org/2000/svg">
<path fill-rule="evenodd" clip-rule="evenodd" d="M216.277 10.3834C216.277 11.1493 216.872 11.745 217.638 11.745C218.319 11.745 218.915 11.1493 219 10.3834C219 9.61744 218.404 9.02173 217.638 9.02173C216.872 9.02173 216.277 9.61744 216.277 10.3834ZM216.532 10.4685C216.532 9.87273 217.043 9.36212 217.639 9.36212C218.234 9.36212 218.66 9.78763 218.745 10.4685C218.745 11.0642 218.234 11.5748 217.639 11.5748C217.043 11.5748 216.532 11.0642 216.532 10.4685ZM218.319 11.1493H217.979L217.724 10.6387H217.298V11.1493H217.043V9.70257H217.724C218.064 9.70257 218.234 9.87278 218.234 10.2132C218.234 10.3834 218.149 10.6387 217.894 10.6387L218.319 11.1493ZM217.979 10.1281C217.979 10.2983 217.809 10.3834 217.724 10.3834V10.2983H217.298V9.87278H217.724C217.894 9.87278 217.979 9.95788 217.979 10.1281Z" fill="#919191"/>
<path d="M76.1055 8.70715H79.5946V18.1534H85.6369V21.2171H76.1055V8.70715Z" fill="#919191"/>
<path fill-rule="evenodd" clip-rule="evenodd" d="M95.9342 8.45178C92.1046 8.45178 89.2112 11.3452 89.2112 15.0046C89.2112 18.5789 92.0195 21.3872 95.9342 21.3872C99.7638 21.3872 102.657 18.4938 102.657 14.9195C102.657 11.3452 99.7638 8.45178 95.9342 8.45178ZM95.8489 11.6005C97.8063 11.6005 99.0828 13.1324 99.0828 15.0046C99.0828 16.7917 97.8063 18.3236 95.8489 18.3236C93.9767 18.3236 92.7002 16.7066 92.7002 14.9195C92.7002 13.1324 93.9767 11.6005 95.8489 11.6005Z" fill="#919191"/>
<path d="M106.827 15.6855V8.70717H110.316V15.6004C110.316 17.3875 111.252 18.2386 112.614 18.2386C113.976 18.2386 114.912 17.3875 114.912 15.6855V8.62207H118.401V15.5153C118.401 19.5151 116.103 21.3022 112.529 21.3022C109.04 21.3873 106.827 19.6002 106.827 15.6855Z" fill="#919191"/>
<path fill-rule="evenodd" clip-rule="evenodd" d="M128.613 8.70715H123.762V21.132H128.528C133.038 21.132 135.676 18.4088 135.676 14.8345C135.676 11.2602 133.038 8.70715 128.613 8.70715ZM132.017 15.0046C132.017 17.047 130.656 18.1534 128.613 18.1534V18.2385H127.167V11.8558H128.613C130.656 11.8558 132.017 13.0473 132.017 15.0046Z" fill="#919191"/>
<path d="M140.612 8.70715H150.569V11.7708H144.102V13.8133H149.974V16.7067H144.102V21.2171H140.612V8.70715Z" fill="#919191"/>
<path d="M155.42 8.70715H158.909V18.1534H164.952V21.2171H155.42V8.70715Z" fill="#919191"/>
<path fill-rule="evenodd" clip-rule="evenodd" d="M177.291 8.62207H173.972L168.611 21.2171H172.185L173.036 19.0045H177.887L178.823 21.2171H182.568L177.291 8.62207ZM175.589 12.707L176.951 16.2812H174.143L175.589 12.707Z" fill="#919191"/>
<path fill-rule="evenodd" clip-rule="evenodd" d="M192.95 8.70715H187.078H186.993V21.132H190.482V17.3875H192.014L194.567 21.132H198.567L195.588 16.7918C197.12 16.111 198.141 14.8345 198.141 12.9622C198.141 11.7708 197.801 10.7496 197.035 10.0688C196.184 9.21776 194.822 8.70715 192.95 8.70715ZM194.652 13.2174C194.652 14.0684 193.971 14.6641 192.78 14.6641V14.7493H190.482V11.7707H192.78C193.971 11.7707 194.652 12.1962 194.652 13.2174Z" fill="#919191"/>
<path d="M203.077 8.70715H213.119V11.6857H206.566V13.558H212.523V16.2812H206.566V18.2385H213.204V21.2171H203.077V8.70715Z" fill="#919191"/>
<path d="M68.5314 16.4513C68.0208 17.5577 66.9996 18.3236 65.6379 18.3236C63.7657 18.3236 62.4892 16.7918 62.4892 14.9195C62.4892 13.1324 63.7657 11.6005 65.6379 11.6005C67.0847 11.6005 68.1059 12.4516 68.6165 13.643H72.2759C71.6802 10.6644 69.042 8.45178 65.723 8.45178C61.8935 8.45178 59 11.3452 59 14.9195C59 18.4938 61.8084 21.3872 65.723 21.3872C69.042 21.3872 71.5951 19.2597 72.2759 16.3662H68.5314V16.4513Z" fill="#919191"/>
<path d="M36.4226 22.6379C36.7197 21.509 36.6009 20.4989 36.0661 19.7265C35.5908 19.0135 34.759 18.5975 33.7489 18.5975L14.6166 18.3599C14.4978 18.3599 14.3789 18.3004 14.3195 18.1816C14.2601 18.0628 14.2601 17.9439 14.2601 17.8251C14.3195 17.6469 14.4978 17.4686 14.676 17.4686L33.9865 17.2309C36.3038 17.1121 38.7399 15.2702 39.6312 13.0123L40.7601 10.1603C40.8195 10.0415 40.8195 9.92265 40.8195 9.80381C39.5717 4.15919 34.5807 0 28.5796 0C23.0538 0 18.3599 3.56502 16.6962 8.49664C15.6267 7.6648 14.2007 7.24888 12.7152 7.42713C10.0415 7.6648 7.96188 9.80381 7.6648 12.4776C7.60538 13.1906 7.6648 13.8442 7.78363 14.4383C3.44619 14.5572 0 18.1222 0 22.4596C0 22.8756 0.059417 23.2321 0.059417 23.648C0.059417 23.8262 0.237668 23.9451 0.415919 23.9451H35.7096C35.8879 23.9451 36.1256 23.8262 36.185 23.5886L36.4226 22.6379Z" fill="#919191"/>
<path d="M42.4831 10.3386C42.3049 10.3386 42.1266 10.3386 41.9483 10.3386C41.8295 10.3386 41.7107 10.4574 41.6513 10.5762L40.8788 13.1906C40.5818 14.3195 40.7006 15.3296 41.2353 16.102C41.7107 16.815 42.5425 17.2309 43.5526 17.2309L47.6524 17.4686C47.7712 17.4686 47.8901 17.528 47.9495 17.6469C48.0089 17.7657 48.0089 17.8845 48.0089 18.0034C47.9495 18.1816 47.7712 18.3599 47.593 18.3599L43.3744 18.5975C41.0571 18.7164 38.621 20.5583 37.7297 22.8161L37.4327 23.5886C37.3732 23.7074 37.4921 23.8856 37.6703 23.8856H52.2275C52.4057 23.8856 52.584 23.7668 52.584 23.5886C52.8217 22.6973 52.9999 21.7466 52.9999 20.7365C52.9405 15.0325 48.2466 10.3386 42.4831 10.3386Z" fill="#919191"/>
</svg>
