<svg width="99" height="36" viewBox="0 0 99 36" fill="none" xmlns="http://www.w3.org/2000/svg">
<g clip-path="url(#clip0_29234_151)">
<path d="M50.6069 7.92791C51.5899 7.92791 52.4601 8.09225 53.2208 8.42408C53.9815 8.75434 54.6545 9.2693 55.2415 9.96582C55.5545 9.39921 55.9396 8.95312 56.3998 8.62756C56.8615 8.30199 57.3326 8.14078 57.8116 8.13921C58.8055 8.13921 59.538 8.48043 60.0123 9.15973C60.485 9.83904 60.7213 10.8815 60.7213 12.2902V23.7992C60.7213 25.9154 60.6165 27.5683 60.4083 28.7563C60.197 29.9443 59.8464 30.9288 59.3565 31.7083C58.5257 33.0972 57.3041 34.2106 55.8441 34.9091C54.3525 35.6369 52.5838 36.0001 50.5349 36.0001C48.0321 36.0001 45.9895 35.6041 44.4086 34.8105C42.8278 34.0201 42.0373 33.0215 42.0373 31.8147C42.0373 31.0947 42.2737 30.4968 42.7479 30.0241C43.2206 29.5514 43.817 29.315 44.5354 29.315C44.8829 29.315 45.7172 29.5686 47.0398 30.0773C48.3639 30.586 49.6005 30.8396 50.7493 30.8396C52.1893 30.8396 53.3006 30.4201 54.0926 29.5811C54.8831 28.7406 55.2775 27.5526 55.2775 26.0156C55.2775 25.9451 55.2712 25.8324 55.2603 25.679C55.2497 25.5609 55.2435 25.4424 55.2415 25.3237C54.6076 26.2222 53.8532 26.8936 52.9782 27.3366C52.1048 27.7811 51.1046 28.0018 49.9777 28.0018C47.6299 28.0018 45.6452 27.0502 44.0236 25.1469C42.4005 23.2436 41.5881 20.8785 41.5881 18.0533C41.5881 15.2046 42.4631 12.8036 44.2114 10.8533C45.9598 8.90304 48.0932 7.92634 50.6069 7.92634V7.92791ZM79.2629 8.13921C80.2333 8.13921 80.9518 8.4773 81.4182 9.15034C81.8846 9.82339 82.1194 10.8721 82.1194 12.2902V19.9159C82.1194 22.6347 81.3697 24.7117 79.8733 26.1486C78.3754 27.5855 76.2092 28.3039 73.3699 28.3039C70.5321 28.3039 68.3612 27.5839 66.8585 26.1486C65.3559 24.7117 64.6046 22.6347 64.6046 19.9159V12.2902C64.6046 10.8815 64.8426 9.83904 65.3215 9.15973C65.8005 8.48043 66.5314 8.13921 67.5128 8.13921C68.4832 8.13921 69.2048 8.48043 69.6775 9.15973C70.1518 9.83904 70.3881 10.8815 70.3881 12.2902V18.7451C70.3881 20.2696 70.6213 21.3481 71.0878 21.982C71.5558 22.6143 72.3165 22.9305 73.3699 22.9305C74.4232 22.9305 75.1855 22.6143 75.6519 21.982C76.1184 21.3481 76.3516 20.2696 76.3516 18.7451V12.2902C76.3516 10.8815 76.5879 9.83904 77.0622 9.15973C77.5349 8.48043 78.2674 8.13921 79.2629 8.13921ZM32.3205 8.06878C34.3928 8.06878 36.0034 8.72617 37.1523 10.0378C38.3027 11.3495 38.8772 13.1996 38.8772 15.5881V23.7992C38.8772 25.2063 38.6377 26.2519 38.1587 26.9375C37.6798 27.623 36.9488 27.9658 35.9674 27.9658C34.9845 27.9658 34.2613 27.6262 33.7933 26.9469C33.3269 26.2676 33.0937 25.2173 33.0937 23.7992V17.3255C33.0937 15.8244 32.8808 14.7256 32.4551 14.0276C32.0293 13.3295 31.3625 12.982 30.4516 12.982C29.4467 12.982 28.7095 13.3248 28.2431 14.0103C27.7751 14.6959 27.5419 15.7775 27.5419 17.255V23.7976C27.5419 25.2063 27.3024 26.2519 26.8219 26.9375C26.3445 27.623 25.6135 27.9658 24.6305 27.9658C23.6492 27.9658 22.9182 27.623 22.4392 26.9375C21.9603 26.2519 21.7208 25.2063 21.7208 23.7992V17.3255C21.7208 15.8135 21.5111 14.7116 21.0932 14.0182C20.6737 13.3279 20.0132 12.982 19.1163 12.982C18.1099 12.982 17.3742 13.3248 16.9062 14.0103C16.4398 14.6959 16.2065 15.7775 16.2065 17.255V23.7976C16.2065 25.2063 15.9671 26.2519 15.4865 26.9375C15.0092 27.623 14.2782 27.9658 13.2952 27.9658C12.3139 27.9658 11.586 27.623 11.1133 26.9375C10.6406 26.2519 10.4027 25.2063 10.4027 23.7992V12.2902C10.4027 10.8705 10.6438 9.81243 11.1227 9.11591C11.6017 8.41782 12.3264 8.06878 13.2952 8.06878C13.8587 8.06878 14.3705 8.2253 14.8323 8.53834C15.2925 8.85138 15.7025 9.32878 16.0625 9.96582C16.6241 9.34236 17.3176 8.85202 18.0926 8.53051C18.8471 8.22217 19.7158 8.06878 20.6972 8.06878C21.9431 8.06878 23.045 8.29417 24.0029 8.74182C24.9608 9.1926 25.7872 9.86565 26.4822 10.7641C27.3556 9.80773 28.2478 9.11904 29.1587 8.69799C30.0681 8.27852 31.1231 8.06878 32.3205 8.06878ZM95.6648 8.03434C96.4662 8.03434 97.158 8.31452 97.7387 8.87643C98.3194 9.43678 98.6105 10.102 98.6105 10.8705C98.6105 12.0178 97.5446 12.9757 95.4128 13.7443C94.6459 14.0166 94.0714 14.2404 93.6879 14.4173C92.957 14.7616 92.4733 15.142 92.2323 15.5615C91.9928 15.981 91.8723 16.7416 91.8723 17.8404V23.7992C91.8723 25.2063 91.6344 26.2519 91.1554 26.9375C90.6765 27.623 89.9455 27.9658 88.9641 27.9658C87.9812 27.9658 87.2533 27.623 86.7806 26.9375C86.3079 26.2519 86.0716 25.2063 86.0716 23.7992V12.2902C86.0716 10.8815 86.3064 9.83904 86.7806 9.15973C87.2533 8.48043 87.9812 8.14078 88.9641 8.13921C89.5511 8.13921 90.0707 8.29104 90.5262 8.59312C90.9801 8.89365 91.3824 9.35225 91.7314 9.96582C92.2718 9.37155 92.917 8.88183 93.6347 8.52112C94.3046 8.19556 94.9808 8.03434 95.6648 8.03434ZM3.35925 8.13921C4.32968 8.13921 5.04968 8.48043 5.51611 9.15973C5.98255 9.83904 6.21577 10.8815 6.21577 12.2902V23.7992C6.21577 25.2173 5.98255 26.2676 5.51611 26.9469C5.04811 27.6262 4.32968 27.9658 3.35925 27.9658C2.37785 27.9658 1.6469 27.623 1.16794 26.9375C0.688984 26.2519 0.447941 25.2063 0.447941 23.7992V12.2902C0.447941 10.8815 0.685854 9.83904 1.15855 9.15973C1.63281 8.48043 2.36533 8.13921 3.35925 8.13921ZM51.3801 13.3717C50.2657 13.3717 49.3563 13.8053 48.6488 14.6756C47.9429 15.5443 47.5892 16.6696 47.5892 18.0533C47.5892 19.4839 47.9429 20.6422 48.6488 21.5281C49.3563 22.4156 50.2657 22.8585 51.3801 22.8585C52.493 22.8585 53.4102 22.4124 54.1286 21.5203C54.8471 20.6281 55.2055 19.4714 55.2055 18.0533C55.2055 16.6696 54.8455 15.5443 54.1286 14.6756C53.4086 13.8053 52.493 13.3717 51.3801 13.3717ZM3.35925 8.06693e-05C4.2702 8.06693e-05 5.04968 0.325646 5.69455 0.975211C6.34255 1.62634 6.66498 2.40582 6.66498 3.31678C6.67356 3.75184 6.59269 4.18402 6.42737 4.58654C6.26206 4.98906 6.01583 5.35333 5.70394 5.65678C5.0622 6.29538 4.28116 6.61469 3.35925 6.61469C2.41385 6.61469 1.61716 6.29538 0.970723 5.65678C0.656656 5.35484 0.408345 4.99127 0.241354 4.58888C0.0743635 4.18649 -0.00770642 3.75394 0.000288595 3.31834C0.000288595 2.40738 0.328984 1.62791 0.987941 0.976776C1.29648 0.661913 1.66576 0.41299 2.07337 0.245101C2.48099 0.0772121 2.91845 -0.00614605 3.35925 8.06693e-05Z" fill="#919191"/>
</g>
<defs>
<clipPath id="clip0_29234_151">
<rect width="99" height="36" fill="white"/>
</clipPath>
</defs>
</svg>
