<svg width="128" height="32" viewBox="0 0 128 32" fill="none" xmlns="http://www.w3.org/2000/svg">
<path fill-rule="evenodd" clip-rule="evenodd" d="M0 7.30156L13.8964 0L27.9429 7.30156L13.8964 14.6282L0 7.30156ZM83.4296 10.8508V10.6782C83.4296 8.26852 84.8251 7.49913 87.1778 7.67304V3.27791C81.5429 2.93009 78.8716 5.78644 78.8716 10.6782V10.8508H76.3228V15.2473H78.8716V28.5565H83.4296V15.246H88.672V28.5565H93.2302V15.246H96.9796V10.8522H93.2302V10.6796C93.2302 8.26991 94.6018 7.50052 96.9796 7.67444V3.27791C91.3449 2.93009 88.6734 5.78644 88.6734 10.6782V10.8508H83.4296ZM51.5742 15.6689C53.0212 14.5002 53.902 12.8376 53.902 10.702C53.902 6.55582 50.5698 3.72452 46.3805 3.72452H36.6525V28.5064H47.1638C51.4518 28.5064 54.8828 25.5764 54.8828 21.33C54.834 18.7715 53.5596 16.8098 51.5742 15.6675V15.6689ZM46.4042 8.3186C47.9722 8.3186 49.0504 9.48596 49.0504 11.0498C49.0504 12.6136 47.9235 13.7809 46.4042 13.7809H41.5276V8.32H46.4042V8.3186ZM47.1402 23.9624H41.5276V18.126H47.1402C48.8056 18.126 50.0062 19.3684 50.0062 21.0324C50.0062 22.72 48.8056 23.9624 47.1402 23.9624ZM69.0949 10.8258V20.3854C69.0949 23.4644 67.4282 24.782 65.1993 24.782C63.1402 24.782 61.6932 23.5395 61.6932 21.1311V10.8244H57.1367V21.7002C57.1367 26.418 60.0529 29.0254 63.826 29.0254C66.2024 29.0254 68.0418 28.1322 69.07 26.542V28.5287H73.6278V10.8258H69.0949ZM115.87 21.5527H102.542C103.203 23.8873 105.115 24.8807 107.491 24.8807C109.28 24.8807 110.7 24.1364 111.46 23.118L115.136 25.2285C113.494 27.6369 110.848 29.0268 107.442 29.0268C101.512 29.0268 97.7627 24.9558 97.7627 19.666C97.7627 14.3778 101.536 10.3054 107.099 10.3054C112.318 10.3054 116.044 14.4515 116.044 19.666C116.044 20.3618 115.97 20.9572 115.87 21.5527ZM107.099 14.4515C104.648 14.4515 102.983 15.7676 102.468 18.0271H111.484C110.92 15.47 109.01 14.4515 107.099 14.4515ZM122.634 13.8811V10.8271H118.076V28.5315H122.634V20.0626C122.634 16.338 125.624 15.2696 128 15.5687V10.4765C125.772 10.4765 123.54 11.4713 122.634 13.8796V13.8811ZM13.8964 27.1582L4.416 21.9409L0 24.3631L13.8964 32L27.9429 24.3645L23.4769 21.9436L13.8964 27.1582ZM4.416 13.714L13.8964 18.4445L23.4782 13.714L27.9444 15.9207L13.8949 22.8591L0 15.9207L4.416 13.714Z" fill="#919191"/>
</svg>
