<svg width="114" height="50" viewBox="0 0 114 50" fill="none" xmlns="http://www.w3.org/2000/svg">
<path d="M31.82 22.7667C31.82 22.7667 28.1733 25.5333 24 23.7333C19.8266 21.9333 18.2466 18.04 18.2466 14.1667C18.2466 14.1667 22.5333 11.7333 22.7266 7.55999C22.92 3.38665 17.1666 2.83332 14.7266 2.71999C12.2866 2.60665 5.39331 3.32665 5.39331 3.32665L5.49998 9.82666C5.49998 9.82666 9.53998 6.83999 10.48 7.41999C11.42 7.99999 8.07331 16.82 5.39331 20.28L10.1466 23.2067C11.567 20.922 12.77 18.5092 13.74 16C13.74 16 15.0733 25.0667 22.06 27.5867C29.0466 30.1067 35.1133 26.3133 35.1133 26.3133L31.82 22.7667ZM14.3733 12.34C14.7066 9.50665 14.7066 7.67332 14.76 6.67332C14.76 6.67332 17.6933 6.39999 18.1666 7.89332C18.64 9.38665 15.7866 11.8733 14.3733 12.34V12.34Z" fill="#919191"/>
<path d="M23.8867 10.3267L28.6667 8.72003C28.6667 8.72003 28.0533 13.5334 27.5 16.0534C26.9467 18.5734 26.0667 21.9134 26.0667 21.9134H22.0667C22.0667 21.9134 23.04 20.3867 23.6733 16.3C23.9925 14.3255 24.0642 12.3189 23.8867 10.3267V10.3267ZM36.44 14.3867C36.3816 14.0174 36.1942 13.6807 35.911 13.4366C35.6278 13.1925 35.2672 13.0567 34.8933 13.0534C33.56 13.0534 31.88 14.7934 31.6267 15.8467C31.3733 16.9 31.4333 18.56 33.6267 18.5867C35.82 18.6134 36.6667 17.76 36.6667 17.76L38.1333 19.8334C38.1333 19.8334 36.5067 21.7734 32.52 21.7734C28.5333 21.7734 27.6867 18.5067 28.32 15.3C28.9533 12.0934 32.2733 8.41336 35.8933 8.41336C39.5133 8.41336 40.1267 10.9067 40.1267 10.9067L36.44 14.3867ZM41.06 5.68003C41.2533 8.3067 39.54 19.8934 38.82 21.7734H42.2467C42.2467 21.7734 43.66 16.5467 44 14.6067C44 14.6067 45.66 12.4267 46.8533 13.2C48.0467 13.9734 46.96 19.8667 45.8267 21.7734H49.56C50.4751 19.4172 51.0801 16.9521 51.36 14.44C51.6067 10.96 50.28 9.2467 48.6467 9.2467C47.3833 9.25809 46.1516 9.64315 45.1067 10.3534C45.1067 10.3534 46.24 6.45336 46.2667 4.07336L41.06 5.68003ZM58.3933 18.76C57.9644 19.0877 57.4397 19.2651 56.9 19.2651C56.3603 19.2651 55.8355 19.0877 55.4067 18.76L62.9867 13.2534C62.9867 13.2534 61.5733 9.49336 57.7867 9.63336C54 9.77336 51.88 12.78 51.5667 16.6C51.4978 17.3105 51.5899 18.0273 51.836 18.6973C52.0821 19.3673 52.476 19.9733 52.9883 20.4702C53.5006 20.9672 54.1183 21.3424 54.7955 21.568C55.4727 21.7936 56.192 21.8638 56.9 21.7734C58.2118 21.5813 59.447 21.0373 60.4741 20.1991C61.5013 19.3609 62.2821 18.26 62.7333 17.0134L60.7333 15.68C60.7333 15.68 59.6133 18.0467 58.3933 18.76ZM56.0467 13.0334C58.2 11.9534 58.92 13.2 58.92 13.2L54.3333 16.38C54.2217 15.7122 54.3281 15.0261 54.6367 14.4234C54.9452 13.8207 55.4396 13.3333 56.0467 13.0334V13.0334ZM70.2267 18.76C69.7978 19.0877 69.273 19.2651 68.7333 19.2651C68.1936 19.2651 67.6689 19.0877 67.24 18.76L74.82 13.2534C74.82 13.2534 73.4067 9.49336 69.62 9.63336C65.8333 9.77336 63.7133 12.78 63.4 16.6C63.3312 17.3105 63.4232 18.0273 63.6693 18.6973C63.9155 19.3673 64.3093 19.9733 64.8216 20.4702C65.334 20.9672 65.9516 21.3424 66.6288 21.568C67.306 21.7936 68.0253 21.8638 68.7333 21.7734C70.0451 21.5813 71.2803 21.0373 72.3075 20.1991C73.3347 19.3609 74.1154 18.26 74.5667 17.0134L72.5667 15.68C72.5667 15.68 71.4467 18.0467 70.2267 18.76ZM67.88 13.0334C70.0333 11.9534 70.7533 13.2 70.7533 13.2L66.1667 16.38C66.0551 15.7122 66.1614 15.0261 66.47 14.4234C66.7786 13.8207 67.2729 13.3333 67.88 13.0334V13.0334ZM91.24 18.76C90.8111 19.0877 90.2864 19.2651 89.7467 19.2651C89.2069 19.2651 88.6822 19.0877 88.2533 18.76L95.8333 13.2534C95.8333 13.2534 94.42 9.49336 90.6333 9.63336C86.8467 9.77336 84.7267 12.78 84.4133 16.6C84.3445 17.3105 84.4366 18.0273 84.6827 18.6973C84.9288 19.3673 85.3226 19.9733 85.835 20.4702C86.3473 20.9672 86.965 21.3424 87.6422 21.568C88.3193 21.7936 89.0386 21.8638 89.7467 21.7734C91.0584 21.5813 92.2936 21.0373 93.3208 20.1991C94.348 19.3609 95.1287 18.26 95.58 17.0134L93.58 15.68C93.58 15.68 92.46 18.0467 91.24 18.76ZM88.8933 13.0334C91.0467 11.9534 91.7666 13.2 91.7666 13.2L87.18 16.38C87.0684 15.7122 87.1748 15.0261 87.4833 14.4234C87.7919 13.8207 88.2863 13.3333 88.8933 13.0334Z" fill="#919191"/>
<path d="M82.8066 15.3334L85.0733 11.2134C85.0733 11.2134 83.4999 9.88003 80.1799 9.88003C76.8599 9.88003 75.1199 11.7067 75.1533 13.78C75.1866 15.8534 78.5533 17.68 79.4666 18.2334C80.3799 18.7867 79.8799 19.7534 78.4933 19.4467C77.1066 19.14 75.3333 17.0134 75.3333 17.0134L73.8733 20.4467C73.8733 20.4467 74.9466 21.82 78.7666 21.82C82.5866 21.82 83.9999 20 83.9999 18.4267C83.9999 17.4 83.0599 15.9934 81.3333 14.94C79.6066 13.8867 78.2399 13.0334 78.2399 12.48C78.2399 11.9267 78.7066 11.3734 79.7866 12.04C80.97 12.9616 81.9907 14.0748 82.8066 15.3334V15.3334ZM27.8399 7.70669C29.4199 6.50669 29.7933 4.24003 27.9866 3.83336C26.1799 3.42669 24.6533 4.94003 24.1199 6.34003C23.5866 7.74003 24.0799 8.62669 24.8933 8.72003C25.9682 8.76649 27.0209 8.40447 27.8399 7.70669ZM35.1133 24.1867L39.1599 28.44C39.1599 28.44 47.7199 26 63.8666 25.5067C80.0133 25.0134 94.1732 24.26 94.2866 23.7067C94.4466 22.9 54.6666 23.1134 35.1133 24.1867V24.1867ZM84.3199 34.5734C84.7799 34.42 85.5066 34.6134 85.7399 34.3934C86.0911 34.0308 86.3674 33.6027 86.5533 33.1334C86.5533 32.9134 85.0066 33.0267 85.0066 33.0267C85.0066 33.0267 86.2133 30.94 86.3399 30.5467C86.4666 30.1534 86.0933 29.0267 85.6733 28.96C85.2533 28.8934 82.9199 32.96 82.4799 33.1334C82.0099 33.2554 81.5199 33.2803 81.0399 33.2067C80.7133 33.1534 80.8799 32.6334 80.7666 32.6934C80.5367 32.8697 80.3445 33.0903 80.2013 33.3423C80.0582 33.5942 79.967 33.8723 79.9333 34.16C79.7799 35.18 81.3866 34.74 81.4666 34.8934C81.5466 35.0467 80.2933 37.38 79.9999 38C79.7066 38.62 79.4066 39.6467 79.9999 40C80.5933 40.3534 80.6666 41.2467 81.5399 40.94C82.4133 40.6334 83.0333 39.9467 82.8066 39.7334C82.5799 39.52 81.7866 40.2467 81.5933 40.0267C81.3999 39.8067 81.7733 38.6934 82.5333 37.44C83.3799 36.06 84.0933 34.6667 84.3199 34.5734V34.5734ZM78.4666 34.1867C78.1599 33.82 76.4066 35.1267 75.2733 36.5067C74.1399 37.8867 73.7933 39.12 74.2266 39.5667C74.6599 40.0134 76.1199 39.3134 77.2133 38.5934C78.3066 37.8734 78.2333 37.9267 78.2733 38.2534C78.3133 38.58 78.7599 39.12 78.2733 39.5867C77.7866 40.0534 76.3933 41.4667 74.8333 41.34C73.2733 41.2134 71.0333 40.0067 72.6599 36.6C74.2866 33.1934 77.0199 32.7 77.7799 32.7934C78.2418 32.8176 78.6781 33.0124 79.0045 33.34C79.3309 33.6676 79.5241 34.1048 79.5466 34.5667C79.5054 35.0114 79.3572 35.4396 79.1145 35.8146C78.8719 36.1896 78.5421 36.5002 78.1533 36.72C77.8733 36.8467 76.4066 36.8467 77.0333 36.36C77.6599 35.8734 78.7866 34.56 78.4666 34.1867V34.1867Z" fill="#919191"/>
<path d="M73.1601 34.5466C73.4668 34.0333 73.4601 33.7466 72.8268 33.5466C72.1934 33.3466 71.5401 34.0999 71.3334 34.1466C71.1268 34.1933 71.1068 33.7533 70.9468 33.3866C70.6734 32.7199 69.5268 32.1266 67.4468 33.3133C65.4697 34.5221 64.013 36.4231 63.3601 38.6466C62.8334 40.5266 64.2134 40.7599 64.5068 40.8799C64.8001 40.9999 64.7668 41.6333 65.8401 41.4333C66.9134 41.2333 68.2334 39.0733 68.5068 39.1266C68.7801 39.1799 68.7001 39.2933 68.5468 39.9866C68.3934 40.6799 68.6334 41.0333 69.0468 41.1599C69.4601 41.2866 69.5601 41.8266 69.8468 41.7533C70.1334 41.6799 71.4134 40.4199 71.3268 40.2333C71.2401 40.0466 71.0401 40.2333 70.6601 40.5266C70.2801 40.8199 70.1068 40.4399 70.2268 40.0666C70.3468 39.6933 72.8534 35.0533 73.1601 34.5466V34.5466ZM65.3868 39.8799C65.1201 40.0466 65.1401 39.5933 65.2068 39.3599C65.4608 38.4937 65.918 37.7007 66.5401 37.0466C67.0134 36.5399 69.8734 33.5199 70.5401 34.5733C71.2068 35.6266 66.7134 39.0599 65.3868 39.8799ZM96.6668 36.2199C96.6668 36.2199 94.9534 38.7399 94.2868 39.6999C93.6201 40.6599 93.1134 41.3666 92.6668 41.3333C92.2201 41.2999 92.3668 40.8199 91.8268 40.5666C91.2868 40.3133 90.8468 39.9666 91.4801 38.7999C92.1134 37.6333 93.9134 33.9133 93.5934 33.4666C93.2734 33.0199 92.5668 33.8199 92.3068 33.7866C92.0468 33.7533 92.2468 33.4399 92.8001 33.0466C93.3534 32.6533 93.9001 32.0533 94.4134 32.4266C94.7801 32.6866 95.4668 33.0399 95.3734 33.9199C95.2801 34.7999 94.9668 35.8399 94.9868 36.0066C95.0068 36.1733 96.3668 34.2733 96.9868 33.5933C97.6068 32.9133 98.0734 32.3933 98.6468 32.8533C99.2201 33.3133 99.7868 33.3666 99.3668 34.4199C98.9468 35.4733 98.3734 37.2599 98.2068 37.7533C98.0401 38.2466 96.8734 38.2466 96.6934 37.7533C96.5134 37.2599 96.9401 36.3066 96.6668 36.2199V36.2199ZM102.553 35.1733C101 37.5333 100.667 38.6666 100.853 38.7466C101.04 38.8266 104.1 35.8333 105.167 34.5466C106.233 33.2599 106.64 32.8866 107.033 33.2533C107.427 33.6199 108.1 33.7133 107.82 34.8599C106.98 37.4083 105.848 39.8512 104.447 42.1399C102.973 44.4466 101.78 46.0266 100.227 45.9399C99.2534 45.8799 98.2268 45.2733 98.4801 44.0199C98.7334 42.7666 99.3468 43.1133 99.3268 43.5399C99.3068 43.9666 99.5068 44.7599 100.047 44.2066C101.435 42.5325 102.663 40.7312 103.713 38.8266C103.713 38.8266 101.573 41.3933 100.487 40.9733C99.4001 40.5533 99.6934 40.4266 98.9401 40.0999C98.1868 39.7733 98.4401 37.1933 99.9868 34.9533C101.533 32.7133 102.167 32.3733 102.793 32.6666C103.42 32.9599 103.567 32.7599 103.82 32.9599C104.073 33.1599 102.553 35.1733 102.553 35.1733V35.1733Z" fill="#919191"/>
<path d="M91.4332 34.0001C91.5265 33.2067 91.1799 32.7267 90.0999 32.6667C89.0199 32.6067 87.5399 32.7934 85.3465 35.3934C83.1532 37.9934 84.4999 40.2201 84.9199 40.3867C85.3399 40.5534 86.0065 40.4601 86.2532 40.7534C86.4999 41.0467 87.6199 41.6934 89.3532 40.3467C90.6503 39.4282 91.6179 38.117 92.1132 36.6067C92.5265 35.4134 92.4132 34.5467 91.4332 34.0001V34.0001ZM89.2265 37.7401C87.9532 39.3334 86.7732 39.8534 86.3465 39.6201C85.9199 39.3867 86.3132 37.8334 87.2132 36.6334C88.1132 35.4334 89.5865 34.2734 90.0132 34.3667C90.2532 34.4267 89.7932 34.9067 89.6465 35.0867C89.4999 35.2667 89.8865 35.0867 90.3132 35.2534C90.7399 35.4201 90.3865 36.2601 89.2265 37.7134V37.7401ZM61.0932 35.8534C61.3332 35.7601 63.9732 35.8534 64.4265 35.3734C64.8799 34.8934 65.2932 33.9534 65.4599 33.8067C65.6265 33.6601 65.7265 33.4401 65.1999 33.4601C64.6732 33.4801 62.7332 33.4601 62.7332 33.4601C63.1176 32.7964 63.4433 32.1004 63.7065 31.3801C63.6532 31.2001 63.2332 30.9401 63.3599 30.8867C63.4865 30.8334 68.2799 30.6467 69.0532 29.7601C69.8265 28.8734 70.2865 28.1001 69.7732 28.0601C69.2599 28.0201 61.7732 28.3201 61.5865 28.1934C61.3999 28.0667 61.5865 27.6734 61.2932 27.7667C60.9999 27.8601 60.1532 28.3734 60.1132 29.1534C60.0622 29.5263 60.141 29.9055 60.3365 30.2271C60.5319 30.5488 60.8321 30.7935 61.1865 30.9201C60.696 31.8245 60.1529 32.6993 59.5599 33.5401C59.3932 33.5401 58.0132 33.5401 57.3665 34.3601C56.7199 35.1801 57.3665 35.6934 58.1399 35.8601C58.1399 35.8601 57.0932 38.6067 56.8065 38.9601C56.659 39.2486 56.6217 39.581 56.7014 39.8951C56.7812 40.2092 56.9726 40.4835 57.2399 40.6667C57.9065 41.2201 58.0132 41.7734 58.4799 41.6067C58.7614 41.4275 58.9893 41.1755 59.1395 40.8775C59.2897 40.5794 59.3566 40.2463 59.3332 39.9134C59.2892 39.753 59.2778 39.5855 59.2995 39.4206C59.3213 39.2557 59.3758 39.0969 59.4599 38.9534C59.5865 38.5467 61.0932 35.8534 61.0932 35.8534Z" fill="#919191"/>
</svg>
